<?xml version="1.0" encoding="UTF-8" standalone="no"?>
<svg
   xmlns:dc="http://purl.org/dc/elements/1.1/"
   xmlns:cc="http://creativecommons.org/ns#"
   xmlns:rdf="http://www.w3.org/1999/02/22-rdf-syntax-ns#"
   xmlns:svg="http://www.w3.org/2000/svg"
   xmlns="http://www.w3.org/2000/svg"
   xmlns:sodipodi="http://sodipodi.sourceforge.net/DTD/sodipodi-0.dtd"
   xmlns:inkscape="http://www.inkscape.org/namespaces/inkscape"
   width="120"
   height="120"
   class="bi bi-play-btn"
   viewBox="0 0 120 120"
   version="1.1"
   id="svg881"
   sodipodi:docname="play.svg"
   style="fill:currentColor"
   inkscape:export-filename="/home/benj/Documents/Jekyll/audiobooth/assets/images/play.png"
   inkscape:export-xdpi="311.04999"
   inkscape:export-ydpi="311.04999"
   inkscape:version="0.92.5 (2060ec1f9f, 2020-04-08)">
  <metadata
     id="metadata887">
    <rdf:RDF>
      <cc:Work
         rdf:about="">
        <dc:format>image/svg+xml</dc:format>
        <dc:type
           rdf:resource="http://purl.org/dc/dcmitype/StillImage" />
        <dc:title></dc:title>
      </cc:Work>
    </rdf:RDF>
  </metadata>
  <defs
     id="defs885" />
  <sodipodi:namedview
     pagecolor="#ffffff"
     bordercolor="#666666"
     borderopacity="1"
     objecttolerance="10"
     gridtolerance="10"
     guidetolerance="10"
     inkscape:pageopacity="0"
     inkscape:pageshadow="2"
     inkscape:window-width="1862"
     inkscape:window-height="1016"
     id="namedview883"
     showgrid="false"
     inkscape:zoom="5.2149125"
     inkscape:cx="8"
     inkscape:cy="55.998275"
     inkscape:window-x="58"
     inkscape:window-y="27"
     inkscape:window-maximized="1"
     inkscape:current-layer="svg881" />
  <rect
     style="opacity:1;fill:#000000;fill-opacity:0.26829272;stroke:#f1f1f1;stroke-width:0;stroke-linecap:butt;stroke-linejoin:miter;stroke-miterlimit:4;stroke-dasharray:none;stroke-dashoffset:30;stroke-opacity:1"
     id="rect1453"
     width="121.1909"
     height="120.8074"
     x="-0.57527256"
     y="-0.040364854" />
  <path
     d="m 57.740396,55.163717 a 0.7217199,0.77165685 0 0 0 -1.140318,0.628128 v 7.716569 a 0.7217199,0.77165685 0 0 0 1.140318,0.628128 l 5.052039,-3.858284 a 0.7217199,0.77165685 0 0 0 0,-1.256257 z"
     id="path877"
     inkscape:connector-curvature="0"
     style="stroke-width:0.99999994;fill:#ffffff" />
  <path
     d="m 47.939439,53.476875 a 2.8868796,3.0866274 0 0 1 2.88688,-3.086628 h 17.321278 a 2.8868796,3.0866274 0 0 1 2.886879,3.086628 v 12.346509 a 2.8868796,3.0866274 0 0 1 -2.886879,3.086628 H 50.826319 a 2.8868796,3.0866274 0 0 1 -2.88688,-3.086628 z m 21.651597,0 A 1.4434398,1.5433137 0 0 0 68.147597,51.933561 H 50.826319 a 1.4434398,1.5433137 0 0 0 -1.44344,1.543314 v 12.346509 a 1.4434398,1.5433137 0 0 0 1.44344,1.543314 h 17.321278 a 1.4434398,1.5433137 0 0 0 1.443439,-1.543314 z"
     id="path879"
     inkscape:connector-curvature="0"
     style="stroke-width:0.99999994;fill:#ffffff" />
</svg>
