<?xml version="1.0" encoding="UTF-8" standalone="no"?>
<svg
   xmlns:dc="http://purl.org/dc/elements/1.1/"
   xmlns:cc="http://creativecommons.org/ns#"
   xmlns:rdf="http://www.w3.org/1999/02/22-rdf-syntax-ns#"
   xmlns:svg="http://www.w3.org/2000/svg"
   xmlns="http://www.w3.org/2000/svg"
   xmlns:sodipodi="http://sodipodi.sourceforge.net/DTD/sodipodi-0.dtd"
   xmlns:inkscape="http://www.inkscape.org/namespaces/inkscape"
   width="120"
   height="120"
   class="bi bi-play-btn"
   viewBox="0 0 120 120"
   version="1.1"
   id="svg881"
   sodipodi:docname="play3.svg"
   style="fill:currentColor"
   inkscape:export-filename="/home/benj/Documents/Jekyll/audiobooth/assets/images/play.png"
   inkscape:export-xdpi="311.04999"
   inkscape:export-ydpi="311.04999"
   inkscape:version="0.92.5 (2060ec1f9f, 2020-04-08)">
  <metadata
     id="metadata887">
    <rdf:RDF>
      <cc:Work
         rdf:about="">
        <dc:format>image/svg+xml</dc:format>
        <dc:type
           rdf:resource="http://purl.org/dc/dcmitype/StillImage" />
        <dc:title></dc:title>
      </cc:Work>
    </rdf:RDF>
  </metadata>
  <defs
     id="defs885" />
  <sodipodi:namedview
     pagecolor="#ffffff"
     bordercolor="#666666"
     borderopacity="1"
     objecttolerance="10"
     gridtolerance="10"
     guidetolerance="10"
     inkscape:pageopacity="0"
     inkscape:pageshadow="2"
     inkscape:window-width="1862"
     inkscape:window-height="1016"
     id="namedview883"
     showgrid="false"
     inkscape:zoom="3.6875"
     inkscape:cx="-24.215306"
     inkscape:cy="65.591817"
     inkscape:window-x="58"
     inkscape:window-y="27"
     inkscape:window-maximized="1"
     inkscape:current-layer="svg881" />
  <rect
     style="opacity:1;fill:#000000;fill-opacity:0.26829272;stroke:#f1f1f1;stroke-width:0;stroke-linecap:butt;stroke-linejoin:miter;stroke-miterlimit:4;stroke-dasharray:none;stroke-dashoffset:30;stroke-opacity:1"
     id="rect1453"
     width="121.1909"
     height="120.8074"
     x="-0.57527256"
     y="-0.040364854" />
  <path
     inkscape:connector-curvature="0"
     d="m 98.363362,110.59463 a 11.983052,11.983052 0 1 1 0,-23.966108 11.983052,11.983052 0 0 1 0,23.966108 m 0,1.71186 a 13.694915,13.694915 0 1 0 0,-27.389832 13.694915,13.694915 0 0 0 0,27.389832"
     id="path814"
     style="fill:#ffffff;stroke-width:1" />
  <path
     inkscape:connector-curvature="0"
     d="m 95.403549,93.570132 a 0.85593217,0.85593217 0 0 1 0.890169,0.06505 l 5.991522,4.279661 a 0.85593217,0.85593217 0 0 1 0,1.393458 l -5.991522,4.279659 a 0.85593217,0.85593217 0 0 1 -1.354085,-0.69673 v -8.559318 a 0.85593217,0.85593217 0 0 1 0.463916,-0.76178"
     id="path816"
     style="fill:#ffffff;stroke-width:1" />
</svg>
