<?xml version="1.0" encoding="UTF-8" standalone="no"?>
<svg
   xmlns:dc="http://purl.org/dc/elements/1.1/"
   xmlns:cc="http://creativecommons.org/ns#"
   xmlns:rdf="http://www.w3.org/1999/02/22-rdf-syntax-ns#"
   xmlns:svg="http://www.w3.org/2000/svg"
   xmlns="http://www.w3.org/2000/svg"
   xmlns:sodipodi="http://sodipodi.sourceforge.net/DTD/sodipodi-0.dtd"
   xmlns:inkscape="http://www.inkscape.org/namespaces/inkscape"
   width="120"
   height="120"
   class="bi bi-play-btn"
   viewBox="0 0 120 120"
   version="1.1"
   id="svg881"
   sodipodi:docname="play-btn.svg"
   style="fill:currentColor"
   inkscape:export-filename="/home/benj/Documents/Jekyll/audiobooth/assets/images/play.png"
   inkscape:export-xdpi="311.04999"
   inkscape:export-ydpi="311.04999"
   inkscape:version="0.92.5 (2060ec1f9f, 2020-04-08)">
  <metadata
     id="metadata887">
    <rdf:RDF>
      <cc:Work
         rdf:about="">
        <dc:format>image/svg+xml</dc:format>
        <dc:type
           rdf:resource="http://purl.org/dc/dcmitype/StillImage" />
        <dc:title></dc:title>
      </cc:Work>
    </rdf:RDF>
  </metadata>
  <defs
     id="defs885" />
  <sodipodi:namedview
     pagecolor="#ffffff"
     bordercolor="#666666"
     borderopacity="1"
     objecttolerance="10"
     gridtolerance="10"
     guidetolerance="10"
     inkscape:pageopacity="0"
     inkscape:pageshadow="2"
     inkscape:window-width="1862"
     inkscape:window-height="1016"
     id="namedview883"
     showgrid="false"
     inkscape:zoom="5.2149125"
     inkscape:cx="8"
     inkscape:cy="55.998275"
     inkscape:window-x="58"
     inkscape:window-y="27"
     inkscape:window-maximized="1"
     inkscape:current-layer="svg881" />
  <path
     d="m 58.564598,56.551371 a 0.5,0.5 0 0 0 -0.79,0.407 v 5 a 0.5,0.5 0 0 0 0.79,0.407 l 3.5,-2.5 a 0.5,0.5 0 0 0 0,-0.814 z"
     id="path877"
     inkscape:connector-curvature="0" />
  <path
     d="m 51.774598,55.458371 a 2,2 0 0 1 2,-2 h 12 a 2,2 0 0 1 2,2 v 8 a 2,2 0 0 1 -2,2 h -12 a 2,2 0 0 1 -2,-2 z m 15,0 a 1,1 0 0 0 -1,-1 h -12 a 1,1 0 0 0 -1,1 v 8 a 1,1 0 0 0 1,1 h 12 a 1,1 0 0 0 1,-1 z"
     id="path879"
     inkscape:connector-curvature="0" />
</svg>
